<svg id="Calque_1" data-name="Calque 1" xmlns="http://www.w3.org/2000/svg" xmlns:xlink="http://www.w3.org/1999/xlink" viewBox="0 0 500 500"><defs><style>.cls-1{fill:url(#linear-gradient);}.cls-2{fill:url(#linear-gradient-2);}.cls-3{fill:url(#linear-gradient-3);}.cls-4{fill:url(#linear-gradient-4);}.cls-5{fill:url(#linear-gradient-5);}.cls-6{fill:url(#linear-gradient-6);}.cls-7{fill:url(#linear-gradient-7);}.cls-8{fill:url(#linear-gradient-8);}.cls-9{fill:url(#linear-gradient-9);}.cls-10{fill:url(#linear-gradient-10);}.cls-11{fill:url(#linear-gradient-11);}.cls-12{fill:url(#linear-gradient-12);}.cls-13{font-size:88.67px;font-family:Futura-Bold, Futura-Bold;}.cls-14{fill:url(#linear-gradient-13);}.cls-15{font-size:44.33px;font-family:AmerikaSans, Amerika Sans;}</style><linearGradient id="linear-gradient" x1="148.49" y1="231.55" x2="345.37" y2="231.55" gradientUnits="userSpaceOnUse"><stop offset="0" stop-color="#a57d24"/><stop offset="0.21" stop-color="#d8be62"/><stop offset="0.33" stop-color="#f1dd80"/><stop offset="0.52" stop-color="#fbf2a8"/><stop offset="0.73" stop-color="#f1dd80"/><stop offset="1" stop-color="#a57d24"/></linearGradient><linearGradient id="linear-gradient-2" x1="89.39" y1="231.55" x2="404.47" y2="231.55" xlink:href="#linear-gradient"/><linearGradient id="linear-gradient-3" x1="98.84" y1="231.55" x2="395.02" y2="231.55" xlink:href="#linear-gradient"/><linearGradient id="linear-gradient-4" x1="6.4" y1="314.1" x2="98.64" y2="314.1" xlink:href="#linear-gradient"/><linearGradient id="linear-gradient-5" x1="85.81" y1="329.88" x2="117.29" y2="329.88" xlink:href="#linear-gradient"/><linearGradient id="linear-gradient-6" y1="314.1" x2="118.77" y2="314.1" gradientUnits="userSpaceOnUse"><stop offset="0" stop-color="#f1dd80"/><stop offset="0.2" stop-color="#a57d24"/><stop offset="0.27" stop-color="#a88128"/><stop offset="0.33" stop-color="#b18c33"/><stop offset="0.39" stop-color="#c1a045"/><stop offset="0.45" stop-color="#d6bb5f"/><stop offset="0.51" stop-color="#f1dd80"/><stop offset="0.52" stop-color="#fbf2a8"/><stop offset="0.59" stop-color="#f1dd80"/><stop offset="0.84" stop-color="#a57d24"/><stop offset="0.94" stop-color="#d8be62"/><stop offset="1" stop-color="#f1dd80"/></linearGradient><linearGradient id="linear-gradient-7" x1="84.18" y1="329.88" x2="118.7" y2="329.88" xlink:href="#linear-gradient-6"/><linearGradient id="linear-gradient-8" x1="403.11" y1="229.77" x2="494.97" y2="229.77" gradientUnits="userSpaceOnUse"><stop offset="0" stop-color="#a57d24"/><stop offset="0.08" stop-color="#b49036"/><stop offset="0.24" stop-color="#d9bf64"/><stop offset="0.33" stop-color="#f1dd80"/><stop offset="0.52" stop-color="#fbf2a8"/><stop offset="0.73" stop-color="#f1dd80"/><stop offset="1" stop-color="#a57d24"/></linearGradient><linearGradient id="linear-gradient-9" x1="396.12" y1="265.48" x2="424.74" y2="265.48" xlink:href="#linear-gradient"/><linearGradient id="linear-gradient-10" x1="386.8" y1="229.77" x2="500" y2="229.77" xlink:href="#linear-gradient-6"/><linearGradient id="linear-gradient-11" x1="394.49" y1="265.48" x2="426.15" y2="265.48" xlink:href="#linear-gradient-6"/><linearGradient id="linear-gradient-12" x1="73.17" y1="256.34" x2="419.01" y2="256.34" xlink:href="#linear-gradient"/><linearGradient id="linear-gradient-13" x1="71.79" y1="256.34" x2="420.39" y2="256.34" xlink:href="#linear-gradient-6"/></defs><title>logo</title><path class="cls-1" d="M246.93,330a98.46,98.46,0,1,1,69.61-168h0a98.41,98.41,0,0,1-69.61,168Zm0-193.88a95.55,95.55,0,1,0,67.49,28h0a95.15,95.15,0,0,0-67.49-28Z"/><path class="cls-2" d="M246.93,389.09a157.06,157.06,0,1,1,61.32-12.38A156.55,156.55,0,0,1,246.93,389.09Zm0-312.08a154.71,154.71,0,1,0,109.28,45.26h0A154.07,154.07,0,0,0,246.93,77Z"/><path class="cls-3" d="M383.38,173.9A148.56,148.56,0,1,0,395,231.55,147.59,147.59,0,0,0,383.38,173.9ZM135.74,288.7a3.4,3.4,0,1,1,2.59-4A3.4,3.4,0,0,1,135.74,288.7Zm18.06,29.09a3.4,3.4,0,1,1,2.59-4A3.4,3.4,0,0,1,153.8,317.78Zm25.91,21.48a3.4,3.4,0,1,1,2.59-4A3.4,3.4,0,0,1,179.71,339.26ZM211,354a3.4,3.4,0,1,1,2.59-4A3.4,3.4,0,0,1,211,354Zm38.18,5.22a3.4,3.4,0,1,1-.42-4.79A3.4,3.4,0,0,1,249.2,359.24Zm37.68-7.81a3.4,3.4,0,1,1-2.59-4A3.4,3.4,0,0,1,286.89,351.43Zm31.31-14.76a3.4,3.4,0,1,1-2.59-4A3.4,3.4,0,0,1,318.2,336.67Zm25.91-21.48a3.4,3.4,0,1,1-2.59-4A3.4,3.4,0,0,1,344.11,315.19Zm-.17-42.66a105.62,105.62,0,1,1,8.27-41A104.92,104.92,0,0,1,343.93,272.53Z"/><path class="cls-4" d="M113.93,341c-32.29-5.89-62.44,25.7-94.44,24.73,8.94-12.67,17.7-28.32,26.41-45A148.48,148.48,0,0,1,4.06,286.23c33.89,9.69,65.27-24.76,98.67-23.75q7.26,37,14.59,75.13A2.9,2.9,0,0,1,113.93,341Z"/><path class="cls-5" d="M117.25,337.27a2.4,2.4,0,0,1-3.34,2.64,56.44,56.44,0,0,0-15.6-4.31c-5.92-.75-10.8-4.48-12-10.22l-.53-2.62c9.29-2.87,18.66-4.19,28.23-2.15Q115.65,328.92,117.25,337.27Z"/><path class="cls-6" d="M20.92,367.15l-1.48,0-2.61-.08,1.5-2.13c7.59-10.77,15.54-24.27,25.69-43.66A148.27,148.27,0,0,1,3,287.13l-3-3.53,4.44,1.27c18.29,5.23,36.38-3,53.87-11,14.38-6.54,29.24-13.31,44.46-12.85l1.12,0,.22,1.1c5,25.48,9.91,50.76,14.59,75.14a4.27,4.27,0,0,1-1.16,3.82,4.33,4.33,0,0,1-3.86,1.21h0c-16.84-3.07-33.59,4.54-49.78,11.91C50,360.61,35.61,367.15,20.92,367.15ZM8,288.58a146,146,0,0,0,38.63,30.91l1.17.67-.63,1.2c-9.83,18.84-17.61,32.24-25,43,13.67-.36,27.33-6.58,40.57-12.6,16.58-7.55,33.73-15.35,51.44-12.11h0a1.5,1.5,0,0,0,1.36-.42,1.45,1.45,0,0,0,.4-1.31c-4.61-24-9.44-48.91-14.37-74-14.17-.11-28.36,6.37-42.09,12.62C42.86,284,25.71,291.83,8,288.58Z"/><path class="cls-7" d="M114.89,341.52a3.84,3.84,0,0,1-1.54-.32A54.77,54.77,0,0,0,98.13,337c-6.88-.88-11.92-5.22-13.16-11.33l-.79-3.86,1.22-.38c10.91-3.37,20.11-4.06,28.94-2.18l.91.19.18.91q1.6,8.29,3.2,16.64h0a3.81,3.81,0,0,1-3.74,4.52ZM87.45,323.75l.28,1.36c1,4.9,5.12,8.38,10.76,9.1a57.57,57.57,0,0,1,16,4.41,1,1,0,0,0,1-.13,1,1,0,0,0,.35-1h0q-1.51-7.89-3-15.72C105.1,320.34,97,321,87.45,323.75Z"/><path class="cls-8" d="M405.39,279.13c30.06-.57,60.19-38.56,90.22-21.85C482.74,238,469.86,228.8,457,222.39c9-16.07,18-30.78,27-41.69-31.78-4.25-63.64,39.23-95.39,21.57,3.63,24.74,7.26,48.67,10.89,71.95A5.83,5.83,0,0,0,405.39,279.13Z"/><path class="cls-9" d="M399.57,274.76a3.94,3.94,0,0,0,4.93,3.18,55.67,55.67,0,0,0,12.84-5.59c5.17-3,8.14-9.31,7.25-14.46-.14-.79-.8-4.2-.94-5l-27.53.22C397,258.57,398.48,267.94,399.57,274.76Z"/><path class="cls-10" d="M405.28,280.53a7.26,7.26,0,0,1-7.17-6.1c-3.75-24.05-7.42-48.27-10.9-72l-.41-2.81,2.48,1.38c17.17,9.55,34.2.62,52.23-8.83,13.91-7.29,28.29-14.83,42.66-12.9l2.51.33-1.61,2c-7.63,9.24-15.72,21.67-26.16,40.2,19.69,10.13,30.18,23.2,37.86,34.7l3.22,4.83-5.07-2.82c-17.17-9.55-34.2-.62-52.23,8.83-12.16,6.37-24.74,13-37.28,13.2l0-1.4,0,1.4Zm-14.89-75.78c3.36,22.83,6.89,46.11,10.5,69.25a4.44,4.44,0,0,0,4.39,3.72h.09c11.88-.23,24.16-6.66,36-12.88,16.35-8.57,33.21-17.4,50.1-11-12.58-17.36-24.76-25-35.14-30.17L455,223l.72-1.29c10.11-18,18.07-30.48,25.5-39.84-12.72-.66-25.76,6.2-38.43,12.84C425.72,203.67,408.06,212.92,390.38,204.75Z"/><path class="cls-11" d="M403.46,279.48a5.34,5.34,0,0,1-5.27-4.5l-1.09-6.78c-.87-5.4-1.78-11.09-2.36-14.88l-.25-1.6,30.34-.25.2,1.18c.07.39.27,1.44.47,2.48s.4,2.11.47,2.51c1,5.84-2.4,12.68-7.93,15.91a56.69,56.69,0,0,1-13.17,5.73A5.32,5.32,0,0,1,403.46,279.48Zm-5.7-25c.58,3.69,1.36,8.58,2.11,13.25l1.09,6.78a2.53,2.53,0,0,0,3.17,2,53.9,53.9,0,0,0,12.51-5.45c4.56-2.66,7.39-8.26,6.57-13-.07-.39-.27-1.43-.46-2.46l-.26-1.36Z"/><path class="cls-12" d="M415.58,263c-109.84-11.71-214.31,72.77-323.79,67.52a6.89,6.89,0,0,1-6.42-5.7q-6-33.52-12.1-67.22a6.34,6.34,0,0,1,6.69-7.5c108.32,9.24,211.53-73,319.62-67.91a7,7,0,0,1,6.55,5.81q6.41,35.55,12.83,71.31A3.13,3.13,0,0,1,415.58,263Z"/><text class="cls-13" transform="translate(115.85 321.36) rotate(-7.69) scale(0.98 1)">S</text><text class="cls-13" transform="translate(170.87 313.06) rotate(-16.72) scale(0.98 1)">Y</text><text class="cls-13" transform="translate(225.56 296.12) rotate(-19.56) scale(0.98 1)">G</text><text class="cls-13" transform="translate(288.09 273.74) rotate(-16.85) scale(0.98 1)">E</text><text class="cls-13" transform="matrix(0.97, -0.16, 0.17, 0.99, 329.5, 260.16)">D</text><path class="cls-14" d="M101.57,332.15q-4.92,0-9.85-.23A8.24,8.24,0,0,1,84,325.06q-6-33.52-12.1-67.22a7.82,7.82,0,0,1,1.86-6.63,7.53,7.53,0,0,1,6.3-2.53C135.18,253.39,190,233.9,243,215c50.9-18.09,103.55-36.8,156.6-34.28a8.38,8.38,0,0,1,7.84,7q6.41,35.55,12.83,71.31A4.57,4.57,0,0,1,419.2,263a4.42,4.42,0,0,1-3.76,1.44h0c-56.52-6-112.69,13.94-167,33.25C200.65,314.62,151.34,332.15,101.57,332.15ZM79.42,251.47a4.81,4.81,0,0,0-3.61,1.63,5,5,0,0,0-1.19,4.24q6.05,33.7,12.1,67.22a5.48,5.48,0,0,0,5.13,4.55c52.58,2.52,105-16.11,155.67-34.12,54.61-19.41,111.07-39.48,168.21-33.39a1.68,1.68,0,0,0,1.45-.55,1.75,1.75,0,0,0,.43-1.5q-6.42-35.76-12.83-71.31a5.61,5.61,0,0,0-5.25-4.66C347,181.07,294.61,199.7,244,217.7c-53.3,18.94-108.42,38.54-164.12,33.78Z"/><text class="cls-15" transform="translate(133.4 244.96) rotate(-87.39)">D</text><text class="cls-15" transform="translate(135.91 212.74) rotate(-74.19)">r</text><text class="cls-15" transform="matrix(0.47, -0.88, 0.88, 0.47, 141.64, 192.42)">e</text><text class="cls-15" transform="translate(155.46 167.41) rotate(-47.41)">a</text><text class="cls-15" transform="translate(174.88 145.08) rotate(-29.01)">m</text><text class="cls-15" transform="matrix(0.97, -0.22, 0.22, 0.97, 215.91, 124.98)"> </text><text class="cls-15" transform="translate(234.3 119.87) rotate(1.42)">M</text><text class="cls-15" transform="translate(273.56 122.01) rotate(18.42)">a</text><text class="cls-15" transform="translate(301.67 131.69) rotate(33.68)">k</text><text class="cls-15" transform="matrix(0.66, 0.75, -0.75, 0.66, 327.85, 149.92)">e</text><text class="cls-15" transform="translate(346.28 171.98) rotate(60.81)">r</text></svg>